<svg xmlns="http://www.w3.org/2000/svg" viewBox="0 0 800 800" shape-rendering="geometricPrecision" text-rendering="geometricPrecision"><g fill="none" stroke="#D4AF37" stroke-width="15" stroke-linecap="round" stroke-linejoin="round"><path d="M95.368 58.618q-.404 0-37.23.405v36.421c3.384 12.699 16.214 20.893 25.09 18.211l-.405 59.894c-15.801-1.062-26.925 14.704-24.686 30.351"/><path d="M95.368 58.618q-.404 0-37.23.405v36.421c3.384 12.699 16.214 20.893 25.09 18.211l-.405 59.894c-15.801-1.062-26.925 14.704-24.686 30.351m25.091-11.432c1.393 18.187-11.23 33.678-25.09 31.196L57.85 400m24.973 0 .508-165.39M125.34 82.426h122.43m147.484 0c-149.951 2.676-232.27 128.827-238.236 220.888L154.561 400"/><path d="M82.823 95.444V82.426c11.521 3.016 28.803-3.559 32.14-25.258l280.291 1.855C249.15 61.785 130.237 192.26 131.586 303.313V400M83.228 192.468c1.393 18.187-11.23 33.678-25.09 31.196L57.85 400m24.973 0 .508-165.39M125.34 82.426h122.43"/><path d="M395.254 82.426c-149.951 2.676-232.27 128.827-238.236 220.888L154.561 400"/><path d="M82.823 95.444V82.426c11.521 3.016 28.803-3.559 32.14-25.258l280.291 1.855C249.15 61.785 130.237 192.26 131.586 303.313V400M695.14 58.618q.404 0 37.23.405v36.421c-3.384 12.699-16.214 20.893-25.09 18.211l.405 59.894c15.801-1.062 26.925 14.704 24.686 30.351"/><path d="M695.14 58.618q.404 0 37.23.405v36.421c-3.384 12.699-16.214 20.893-25.09 18.211l.405 59.894c15.801-1.062 26.925 14.704 24.686 30.351m-25.091-11.432c-1.393 18.187 11.23 33.678 25.09 31.196L732.658 400m-24.973 0-.508-165.39M665.168 82.426h-122.43m-147.484 0c149.951 2.676 232.27 128.827 238.236 220.888L635.947 400"/><path d="M707.685 95.444V82.426c-11.521 3.016-28.803-3.559-32.14-25.258l-280.291 1.855c146.104 2.762 265.017 133.237 263.668 244.29V400m48.358-207.532c-1.393 18.187 11.23 33.678 25.09 31.196L732.658 400m-24.973 0-.508-165.39M665.168 82.426h-122.43"/><path d="M395.254 82.426c149.951 2.676 232.27 128.827 238.236 220.888L635.947 400"/><path d="M707.685 95.444V82.426c-11.521 3.016-28.803-3.559-32.14-25.258l-280.291 1.855c146.104 2.762 265.017 133.237 263.668 244.29V400M95.368 741.382q-.404 0-37.23-.405v-36.421c3.384-12.699 16.214-20.893 25.09-18.211l-.405-59.894c-15.801 1.062-26.925-14.704-24.686-30.351"/><path d="M95.368 741.382q-.404 0-37.23-.405v-36.421c3.384-12.699 16.214-20.893 25.09-18.211l-.405-59.894c-15.801 1.062-26.925-14.704-24.686-30.351m25.091 11.432c1.393-18.187-11.23-33.678-25.09-31.196L57.85 400m24.973 0 .508 165.39m42.009 152.184h122.43m147.484 0c-149.951-2.676-232.27-128.827-238.236-220.888L154.561 400"/><path d="M82.823 704.556v13.018c11.521-3.016 28.803 3.559 32.14 25.258l280.291-1.855c-146.104-2.762-265.017-133.237-263.668-244.29V400M83.228 607.532c1.393-18.187-11.23-33.678-25.09-31.196L57.85 400m24.973 0 .508 165.39m42.009 152.184h122.43"/><path d="M395.254 717.574c-149.951-2.676-232.27-128.827-238.236-220.888L154.561 400"/><path d="M82.823 704.556v13.018c11.521-3.016 28.803 3.559 32.14 25.258l280.291-1.855c-146.104-2.762-265.017-133.237-263.668-244.29V400M695.14 741.382q.404 0 37.23-.405v-36.421c-3.384-12.699-16.214-20.893-25.09-18.211l.405-59.894c15.801 1.062 26.925-14.704 24.686-30.351"/><path d="M695.14 741.382q.404 0 37.23-.405v-36.421c-3.384-12.699-16.214-20.893-25.09-18.211l.405-59.894c15.801 1.062 26.925-14.704 24.686-30.351m-25.091 11.432c-1.393-18.187 11.23-33.678 25.09-31.196L732.658 400m-24.973 0-.508 165.39m-42.009 152.184h-122.43m-147.484 0c149.951-2.676 232.27-128.827 238.236-220.888L635.947 400"/><path d="M707.685 704.556v13.018c-11.521-3.016-28.803 3.559-32.14 25.258l-280.291-1.855c146.104-2.762 265.017-133.237 263.668-244.29V400m48.358 207.532c-1.393-18.187 11.23-33.678 25.09-31.196L732.658 400m-24.973 0-.508 165.39m-42.009 152.184h-122.43"/><path d="M395.254 717.574c149.951-2.676 232.27-128.827 238.236-220.888L635.947 400"/><path d="M707.685 704.556v13.018c-11.521-3.016-28.803 3.559-32.14 25.258l-280.291-1.855c146.104-2.762 265.017-133.237 263.668-244.29V400"/></g></svg>